<?xml version="1.0" encoding="utf-8"?>
<!-- Generator: Adobe Illustrator 26.3.1, SVG Export Plug-In . SVG Version: 6.00 Build 0)  -->
<svg version="1.1" id="Layer_1" xmlns="http://www.w3.org/2000/svg" xmlns:xlink="http://www.w3.org/1999/xlink" x="0px" y="0px"
	 viewBox="0 0 152.7 114.9" style="enable-background:new 0 0 152.7 114.9;" xml:space="preserve">
<style type="text/css">
	.st0{fill:none;}
	.st1{fill:#0A233D;}
	.st2{fill:#FFFFFF;}
</style>
<g>
	<g>
		<g>
			<path class="st0" d="M124.4,14.3c-6.9,0-12.6,5.6-12.6,12.6s5.6,12.6,12.6,12.6S137,33.8,137,26.9S131.3,14.3,124.4,14.3z"/>
			<path class="st0" d="M56.4,59.1h-0.7v3.9h0.6c1.7,0,2.6-0.7,2.6-2C58.9,59.7,58.1,59.1,56.4,59.1z"/>
			<path class="st0" d="M110.8,60.2c-0.9,0.9-1.3,2-1.3,3.2c0,1.3,0.5,2.5,1.4,3.3c0.9,0.9,1.9,1.3,3.1,1.3c1.3,0,2.4-0.4,3.2-1.3
				c0.9-0.9,1.3-2,1.3-3.3c0-1.3-0.4-2.4-1.3-3.3c-0.9-0.9-1.9-1.3-3.2-1.3C112.7,58.8,111.7,59.3,110.8,60.2z"/>
			<polygon class="st1" points="146.7,61.3 146.7,58.1 147.9,58.1 147.9,57.5 144.7,57.5 144.7,58.1 146,58.1 146,61.3 			"/>
			<polygon class="st1" points="150.6,60.2 149.7,57.5 148.6,57.5 148.6,61.3 149.3,61.3 149.3,58.2 150.3,61.3 150.9,61.3 
				152,58.2 152,61.3 152.7,61.3 152.7,57.5 151.6,57.5 			"/>
			<polygon class="st1" points="8.9,65.8 0,56.5 0,69.6 1.8,69.6 1.8,61 10.8,70.3 10.8,57.3 8.9,57.3 			"/>
			<path class="st1" d="M20.5,57.3v7.9c0,1.3,0.4,2.3,1.2,3.2c0.9,0.9,2,1.4,3.3,1.4c1.3,0,2.4-0.5,3.3-1.4c0.8-0.8,1.2-1.9,1.2-3.2
				v-7.9h-1.8v7.4c0,1.1-0.2,1.8-0.5,2.3c-0.5,0.7-1.2,1.1-2.2,1.1c-0.9,0-1.6-0.4-2.2-1.1c-0.3-0.5-0.5-1.3-0.5-2.3v-7.4H20.5z"/>
			<polygon class="st1" points="42.6,69.6 42.6,59.1 45.4,59.1 45.4,57.3 38,57.3 38,59.1 40.8,59.1 40.8,69.6 			"/>
			<path class="st1" d="M60,63.2c0.5-0.6,0.7-1.4,0.7-2.2c0-1.1-0.4-2-1.2-2.7c-0.7-0.6-1.9-0.9-3.5-0.9h-2.2v12.2h1.8v-5h0.3l3.5,5
				h2.3L58,64.4C58.8,64.2,59.5,63.8,60,63.2z M56.3,62.9h-0.6v-3.9h0.7c1.7,0,2.5,0.6,2.5,1.9C58.9,62.3,58.1,62.9,56.3,62.9z"/>
			<rect x="70.4" y="57.3" class="st1" width="1.8" height="12.2"/>
			<polygon class="st1" points="80.7,59.1 83.5,59.1 83.5,69.6 85.4,69.6 85.4,59.1 88.2,59.1 88.2,57.3 80.7,57.3 			"/>
			<rect x="96.6" y="57.3" class="st1" width="1.8" height="12.2"/>
			<path class="st1" d="M109.5,59c-1.3,1.2-1.9,2.7-1.9,4.4c0,2,0.7,3.5,2.1,4.7c1.3,1.1,2.7,1.6,4.2,1.6c1.8,0,3.3-0.6,4.6-1.8
				c1.3-1.2,1.9-2.7,1.9-4.5c0-1.7-0.6-3.2-1.9-4.5c-1.2-1.2-2.7-1.9-4.5-1.9C112.3,57.1,110.8,57.7,109.5,59z M118.5,63.4
				c0,1.3-0.4,2.4-1.3,3.3c-0.9,0.9-2,1.3-3.2,1.3c-1.2,0-2.2-0.4-3.1-1.3c-0.9-0.9-1.4-2-1.4-3.3c0-1.3,0.4-2.4,1.3-3.2
				c0.9-0.9,1.9-1.3,3.2-1.3c1.3,0,2.3,0.4,3.2,1.3C118.1,61.1,118.5,62.1,118.5,63.4z"/>
			<polygon class="st1" points="129.5,56.5 129.5,69.6 131.3,69.6 131.3,61 140.3,70.3 140.3,57.3 138.4,57.3 138.4,65.8 			"/>
			<path class="st1" d="M62,0v31.8c0,7.6,6.2,13.8,13.8,13.8v-6.2c-4.2,0-7.7-3.4-7.7-7.7V13.9h7.2V7.7h-7.2V0H62z"/>
			<rect x="47.1" y="10.1" class="st1" width="6.2" height="35.2"/>
			<rect x="47.1" y="0" class="st1" width="6.2" height="5.4"/>
			<path class="st1" d="M124.4,8.2c-10.3,0-18.7,8.4-18.7,18.7c0,10.3,8.4,18.7,18.7,18.7s18.7-8.4,18.7-18.7
				C143.1,16.6,134.7,8.2,124.4,8.2z M124.4,39.4c-6.9,0-12.6-5.6-12.6-12.6s5.6-12.6,12.6-12.6S137,20,137,26.9
				S131.3,39.4,124.4,39.4z"/>
			<path class="st1" d="M6.2,26.7c0-6.9,5.6-12.6,12.6-12.6s12.6,5.6,12.6,12.6V45h6.2V26.7c0-10.3-8.4-18.7-18.7-18.7
				S0,16.4,0,26.7V45h6.2V26.7z"/>
			<path class="st1" d="M102.1,7.9c-10.3,0-18.7,8.4-18.7,18.7l0,18.4l6.2,0l0-18.3c0-6.9,5.6-12.6,12.6-12.6V7.9z"/>
		</g>
		<rect x="0" y="81.6" class="st1" width="140.3" height="33.3"/>
		<g>
			<g>
				<path class="st2" d="M11.5,93.6c1,0,1.9,0.1,2.6,0.7c0.7,0.6,0.9,1.5,0.9,2.2c0,1.4-0.9,2.9-3.2,2.9h-1v4.4H9.7V93.6H11.5z
					 M10.8,98.3h0.9c1.3,0,2.2-0.7,2.2-1.8c0-1.6-1.5-1.8-2.2-1.8h-0.8V98.3z"/>
				<path class="st2" d="M16.1,98.7c0-3,2.4-5.3,5.3-5.3s5.3,2.2,5.3,5.3c0,3-2.3,5.3-5.3,5.3C18.4,104,16.1,101.7,16.1,98.7z
					 M17.2,98.7c0,2.3,1.8,4.2,4.1,4.2s4.1-1.9,4.1-4.2c0-2.3-1.8-4.2-4.1-4.2S17.2,96.4,17.2,98.7z"/>
				<path class="st2" d="M28.5,93.6l2.7,7.6l3.2-8.1l3,8.1l3-7.6h1.3l-4.3,10.7l-3-8.1l-3.2,8.1l-3.9-10.7H28.5z"/>
				<path class="st2" d="M48.3,94.7h-4.2v3h4v1.1h-4v4h4.2v1.1h-5.3V93.6h5.3V94.7z"/>
				<path class="st2" d="M52,93.6c0.7,0,1.7,0,2.5,0.6c0.6,0.4,1.1,1.2,1.1,2.3c0,1.6-1,2.7-2.6,2.8l3.2,4.5h-1.4l-3.1-4.5h-0.3v4.5
					h-1.1V93.6H52z M51.5,98.3h0.7c1.4,0,2.2-0.7,2.2-1.9c0-0.6-0.2-1.1-0.8-1.5c-0.5-0.3-1-0.3-1.5-0.3h-0.7V98.3z"/>
				<path class="st2" d="M63.4,94.7h-4.2v3h4v1.1h-4v4h4.2v1.1h-5.3V93.6h5.3V94.7z"/>
				<path class="st2" d="M65.4,93.6h2.1c1,0,2.5,0.1,3.8,1.2c0.9,0.8,1.7,2.1,1.7,3.9c0,2.1-1.1,3.3-1.8,3.9
					c-0.9,0.8-1.9,1.2-3.7,1.2h-2.1V93.6z M66.6,102.7h1c0.8,0,1.9-0.1,2.9-0.9c0.8-0.6,1.4-1.6,1.4-3.1c0-2.4-1.7-4-4.3-4h-1V102.7
					z"/>
				<path class="st2" d="M80.5,93.6c0.6,0,1.6,0,2.3,0.6c0.3,0.2,0.9,0.9,0.9,2.1c0,0.5-0.1,1.4-1,2c1.4,0.4,1.9,1.6,1.9,2.6
					s-0.5,1.8-1,2.2c-0.8,0.6-1.7,0.7-2.4,0.7h-2.5V93.6H80.5z M79.8,98.1h0.9c0.6,0,2-0.1,2-1.7c0-1.7-1.6-1.7-2-1.7h-0.9V98.1z
					 M79.8,102.7h1.3c0.7,0,1.3,0,1.8-0.4c0.4-0.3,0.7-0.8,0.7-1.4c0-0.8-0.5-1.3-0.9-1.5c-0.4-0.2-0.9-0.3-1.7-0.3h-1.2V102.7z"/>
				<path class="st2" d="M88.6,99.4l-3.3-5.8h1.3l2.6,4.5l2.6-4.5h1.3l-3.4,5.8v4.4h-1.1V99.4z"/>
			</g>
			<g>
				<g>
					<path class="st2" d="M98.4,91.1c0.1,0,0,1.6,0,6.9c0,5.3-0.1,7.1-0.2,7.4c-0.3,0.5-0.8,0.7-0.8,0.9c0,0.2,0.1,0.3,0.1,0.4
						c0.2,0.1,1-0.4,2-0.6c1.7-0.3,2.1-0.2,2.2-0.3c0.1-0.1,0.1-0.4-0.1-0.5c-0.1-0.1-0.9,0.2-1.4-0.2c-0.3-0.3-0.3-0.7-0.2-7.1
						c0.1-6.1,0.2-6.9,0.5-7.1c0.3-0.2,0.7-0.2,0.6-0.6c0-0.3-0.5-0.3-0.6-0.2c-0.1,0-1.5,0.2-1.5,0.2c-0.9,0.1-1.9,0.3-2.1,0.5
						c0,0-0.1,0.4,0.1,0.5C97.1,91.5,98.3,91.1,98.4,91.1z"/>
					<path class="st2" d="M108.9,90.2c-0.1-0.1-0.3-0.1-0.6-0.1c-0.2,0-0.5-0.1-0.6,0c-0.5,0.5-1,1.1-3.2,3.9
						c-2.3,2.8-3.4,3.8-3.4,3.8s1.3,2.1,3.1,4.4c1.7,2.4,2.6,3.1,3.4,3.6c0.7,0.5,2,0.5,2.2,0.5c0.2,0,0.8,0.1,0.8-0.1
						c0-0.3-0.5-0.4-1-0.7c-0.5-0.3-1.5-1-3.7-3.9c-2.1-2.9-2.5-3.7-2.8-4.2c0.9-1,1.1-1,3-3.3C108.2,91.6,109,90.4,108.9,90.2z"/>
					<path class="st2" d="M114,95c0-0.7,0-0.7-0.2-0.7c-0.1,0-0.1,0-0.2,0.2c-0.4,0.9-3.1,5.9-3.1,5.9s-0.6-1.5-1.2-3
						c-0.6-1.4-1.1-2.9-1.2-2.9c-0.1,0-0.6,0.3-1.2,0.5c-0.6,0.3-1.1,0.4-1.1,0.5c0,0.1,0.1,0.3,0.2,0.4c0.2,0,0.5-0.3,0.9-0.2
						c0.3,0.1,0.5,0.4,0.6,0.7c1.4,3.3,2.2,4.7,2.2,5.3c0,0.3-0.9,1.9-1,2.1c-0.1,0.1-0.3,0.4-0.2,0.5c0.1,0.1,0.5,0,0.6,0
						c0.1,0,0.1-0.1,0.2-0.2c0.1-0.2,4.1-6.9,4.6-7.9C114,96,114,95.7,114,95z"/>
					<path class="st2" d="M114.5,102.4c1.7,0,2.9-1.5,2.9-1.5s0.1,1.5,1.4,1.5c1.1,0,1.5-0.5,1.5-0.5c0,0,0-0.1,0-0.2
						c0-0.1-0.1-0.1-0.2-0.1c-1.2,0-1.4-1.2-1.4-1.9c0-0.7,0.1-2.4,0.1-2.9c0-0.5-0.1-1.4-0.5-1.8c-0.4-0.4-0.9-0.4-1.7-0.4
						c-0.8,0-1.3,0.1-1.6,0.4c-0.3,0.3-0.3,0.9-0.2,1c0.1,0.1,1.6-0.7,2.3,0c0.7,0.7,0.5,1.8,0.5,1.8s-4.5,0.6-4.5,3.3
						C113.1,101.4,113.2,102.4,114.5,102.4z M117.6,98.3c0,0,0.2,3.2-2.1,3.2c-0.8,0-1-0.6-1-0.9C114.5,98.8,117.6,98.3,117.6,98.3z
						"/>
					<path class="st2" d="M115.1,92.9c0.3,0,0.5-0.2,0.5-0.5c0-0.3-0.2-0.5-0.5-0.5c-0.3,0-0.5,0.2-0.5,0.5
						C114.7,92.6,114.9,92.9,115.1,92.9z"/>
					<path class="st2" d="M118.1,92.2c0-0.3-0.2-0.5-0.5-0.5c-0.3,0-0.5,0.2-0.5,0.5c0,0.3,0.2,0.5,0.5,0.5
						C117.9,92.8,118.1,92.5,118.1,92.2z"/>
					<path class="st2" d="M121.8,95.8c0-0.2-0.5-1.3-0.9-1.3c-0.1,0-0.3,0.3-0.8,0.5c-0.5,0.3-0.9,0.3-0.9,0.5
						c0,0.1,0.1,0.3,0.2,0.3c0.1,0,0.2-0.1,0.3-0.1c1.4,0,0.9,3.3,1,6.5c0,0.3,0.4,0.1,0.7,0c0.3-0.1,0.4-0.1,0.5-0.2
						c0.1-0.2,0.1-2.6,0.1-3.6c0-1,0-2,0-2s0.7-0.8,1.6-0.8c1.3,0,1.7,1.2,1.7,3.4c0,2.2-0.4,3.2-0.4,3.2c0,0,0.1,0.2,0.2,0.2
						c0.1,0,0.7-0.4,1.2-0.6c0.6-0.2,1.1-0.3,1.1-0.6c0-0.1-0.1-0.3-0.2-0.3c-0.1,0-0.4,0.2-0.6,0.2c-0.1,0-0.3,0-0.3-0.3
						c0-0.5,0.1-0.9,0.1-2.6c0-2.7-0.5-3.7-1.7-3.7C123.5,94.7,122,95.7,121.8,95.8z"/>
					<path class="st2" d="M129.3,94.6c-0.1,0-0.6,0.3-0.9,0.4c-0.4,0.2-1.3,0.3-1.3,0.6s0.1,0.3,0.2,0.3c0.1,0,0.3-0.2,0.5-0.1
						c0.7,0.1,0.5,0.4,0.5,6c0,0.6,0,0.8,0.1,0.8c0.1,0,0.4-0.1,0.6-0.2c0.2-0.1,0.4-0.1,0.5-0.3c0.1-0.3,0.1-2,0.1-5.5
						c0-0.6,0.1-1.4,0.1-1.7C129.6,94.7,129.4,94.6,129.3,94.6z"/>
					<path class="st2" d="M125.4,88.1c-0.9,1.6-0.4,3.7,1.2,4.6c0.2,0,0.5-0.2,0.6-0.6c0.6-1.3,2-1.8,3.4-0.9c0.1,0,0.1,0.1,0.2,0.1
						c-0.7,0-1,0.8-1,0.8c0,0-0.1,0.1-0.1,0.1c-0.2,0.4-0.6,0.7-1,0.9c1.1-0.1,2.1-0.7,2.7-1.7c0.9-1.7,0.3-3.7-1.3-4.7
						c-0.5-0.3-1.1-0.4-1.7-0.4h0C127.2,86.3,126,87,125.4,88.1z M131.2,88.3c-0.2-0.2-1.6-1.7-3.4,0.9c-0.9,1.2-1.9,1.6-2.5,1.5
						c-0.1-0.3-0.1-0.5-0.1-0.8c0-1.7,1.4-3.1,3.2-3.1C129.6,86.7,130.6,87.4,131.2,88.3z"/>
					<path class="st2" d="M130.1,91.3c0,0-0.2,0-0.4,0c-0.4,0-1.1,0.1-1.5,0.8c-0.6,1.1-1.5,1.5-2.5,0.9c0,0,1.7,1.3,2.8-0.5
						C129.3,91.1,130.1,91.3,130.1,91.3z"/>
					<path class="st2" d="M131.5,95.5l-0.2-0.3c0.1,0,0.2-0.1,0.2-0.2c0-0.1-0.1-0.2-0.2-0.2H131v0.6h0.1v-0.3h0.1L131.5,95.5
						L131.5,95.5z M131.2,95.1h-0.1v-0.2h0.1c0.1,0,0.1,0,0.1,0.1C131.4,95.1,131.3,95.1,131.2,95.1z"/>
					<path class="st2" d="M131.8,95.2c0-0.3-0.3-0.6-0.6-0.6c-0.3,0-0.6,0.2-0.6,0.6c0,0.3,0.3,0.6,0.6,0.6
						C131.5,95.7,131.8,95.5,131.8,95.2z M130.7,95.2c0-0.3,0.2-0.5,0.5-0.5s0.5,0.2,0.5,0.5c0,0.3-0.2,0.5-0.5,0.5
						S130.7,95.4,130.7,95.2z"/>
				</g>
			</g>
		</g>
	</g>
</g>
</svg>
