<?xml version="1.0" encoding="utf-8"?>
<!-- Generator: Adobe Illustrator 26.3.1, SVG Export Plug-In . SVG Version: 6.00 Build 0)  -->
<svg version="1.1" id="Layer_1" xmlns="http://www.w3.org/2000/svg" xmlns:xlink="http://www.w3.org/1999/xlink" x="0px" y="0px"
	 viewBox="0 0 1173.2 368.3" style="enable-background:new 0 0 1173.2 368.3;" xml:space="preserve">
<style type="text/css">
	.st0{fill:#0C243D;}
	.st1{fill-rule:evenodd;clip-rule:evenodd;fill:#0C243D;}
	.st2{filter:url(#Adobe_OpacityMaskFilter);}
	.st3{fill-rule:evenodd;clip-rule:evenodd;fill:#FFFFFF;}
	.st4{mask:url(#b_00000063632391302954646320000015865185088412574633_);fill-rule:evenodd;clip-rule:evenodd;fill:#0C243D;}
</style>
<g>
	<polygon class="st0" points="1142.3,320.9 1142.3,304.3 1148.8,304.3 1148.8,301 1131.9,301 1131.9,304.3 1138.4,304.3 
		1138.4,320.9 	"/>
	<polygon class="st0" points="1162.9,315.2 1157.8,301 1152.2,301 1152.2,320.9 1155.8,320.9 1155.8,304.9 1161.3,320.9 
		1164.5,320.9 1170,304.9 1170,320.9 1173.7,320.9 1173.7,301 1168,301 	"/>
	<polygon class="st0" points="420.5,344.8 373.8,296 373.8,364.4 383.5,364.4 383.5,319.6 430.1,368.3 430.1,300.4 420.5,300.4 	"/>
	<path class="st0" d="M481.1,300.4v41.2c0,6.7,2.1,12.3,6.3,16.7c4.7,4.9,10.5,7.3,17.4,7.3s12.7-2.4,17.4-7.3
		c4.2-4.4,6.3-9.9,6.3-16.7v-41.2h-9.7v38.5c0,5.6-0.9,9.6-2.7,12.1c-2.7,3.7-6.5,5.5-11.4,5.5s-8.6-1.8-11.3-5.5
		c-1.8-2.5-2.7-6.6-2.7-12.1v-38.5H481.1z"/>
	<polygon class="st0" points="597.1,364.4 597.1,309.5 611.8,309.5 611.8,300.4 572.7,300.4 572.7,309.5 587.4,309.5 587.4,364.4 	
		"/>
	<path class="st0" d="M688,330.8c2.6-3.3,3.9-7.2,3.9-11.7c0-5.8-2.1-10.5-6.2-14c-3.8-3.2-9.9-4.8-18.3-4.8h-11.3v64h9.7v-26.2h1.7
		l18.3,26.2h11.8L677.8,337C682,336.2,685.4,334.1,688,330.8z M668.8,329.8h-3.1v-20.3h3.4c8.9,0,13.3,3.3,13.3,9.8
		C682.5,326.3,677.9,329.8,668.8,329.8z"/>
	<rect x="742.8" y="300.4" class="st0" width="9.7" height="64"/>
	<polygon class="st0" points="796.7,309.5 811.5,309.5 811.5,364.4 821.1,364.4 821.1,309.5 835.8,309.5 835.8,300.4 796.7,300.4 	
		"/>
	<rect x="880" y="300.4" class="st0" width="9.7" height="64"/>
	<path class="st0" d="M947.4,308.9c-6.6,6.5-9.9,14.2-9.9,23.2c0,10.3,3.6,18.5,10.9,24.9c6.6,5.7,14,8.6,22.3,8.6
		c9.3,0,17.3-3.2,23.9-9.7c6.6-6.4,9.9-14.2,9.9-23.4c0-9.1-3.3-17-9.8-23.5s-14.3-9.8-23.5-9.8C961.9,299.2,954,302.4,947.4,308.9z
		 M994.7,332.4c0,6.7-2.3,12.5-6.9,17.2c-4.6,4.6-10.3,7-17,7c-6.2,0-11.6-2.3-16.4-6.8c-4.8-4.6-7.1-10.4-7.1-17.4
		c0-6.7,2.3-12.4,6.9-17c4.6-4.6,10.2-7,16.9-7s12.3,2.3,16.8,7C992.4,319.8,994.7,325.5,994.7,332.4z"/>
	<polygon class="st0" points="1052.2,296 1052.2,364.4 1061.9,364.4 1061.9,319.6 1108.5,368.3 1108.5,300.4 1098.9,300.4 
		1098.9,344.8 	"/>
	<path class="st0" d="M698.5,0v166.5c0,39.9,32.5,72.4,72.4,72.4v-32.3c-22.1,0-40.1-18-40.1-40.1V72.9h37.8V40.6h-37.8V0H698.5z"/>
	<rect x="620.3" y="52.8" class="st0" width="32.3" height="184.1"/>
	<rect x="620.3" class="st0" width="32.3" height="28.2"/>
	<path class="st0" d="M1025.5,42.7c-54.1,0-98.1,44-98.1,98.1s44,98.1,98.1,98.1s98.1-44,98.1-98.1S1079.6,42.7,1025.5,42.7z
		 M1025.5,206.7c-36.3,0-65.8-29.5-65.8-65.8S989.2,75,1025.5,75c36.3,0,65.8,29.5,65.8,65.8S1061.7,206.7,1025.5,206.7z"/>
	<path class="st0" d="M406,139.8c0-36.3,29.5-65.8,65.8-65.8s65.8,29.5,65.8,65.8v96.1h32.3v-96.1c0-54.1-44-98.1-98.1-98.1
		s-98.1,44-98.1,98.1v96.1H406V139.8z"/>
	<path class="st0" d="M908.7,41.6c-54.1,0-98.1,44-98.1,98.1l0.1,96.1H843l-0.1-96.1c0-36.3,29.5-65.8,65.8-65.8V41.6z"/>
</g>
<path class="st0" d="M161.4,46.7c42.1,0,81.6,16.4,111.3,46.1s46.1,69.3,46.1,111.3s-16.4,81.6-46.1,111.3s-69.3,46.1-111.3,46.1
	s-81.6-16.4-111.3-46.1C20.4,285.7,4,246.2,4,204.2s16.4-81.6,46.1-111.3C79.9,63.1,119.4,46.7,161.4,46.7 M161.4,42.7
	C72.3,42.7,0,115,0,204.2s72.3,161.4,161.4,161.4s161.5-72.3,161.5-161.4S250.6,42.7,161.4,42.7L161.4,42.7z"/>
<g>
	<path class="st0" d="M50.6,277.6l2.5,3.3l-3.2,11.8l0,0l7.7-5.8l2.5,3.3l-12.6,9.5l-2.5-3.3l3.2-11.9l0,0l-7.7,5.8l-2.5-3.3
		L50.6,277.6z"/>
	<path class="st0" d="M57.8,306.7l-2.7,1.2l-3.1-3l15.4-7.1l3.2,3.1l-6.8,15.5l-3.1-3.1l1.2-2.7L57.8,306.7z M65.6,302.9L65.6,302.9
		l-4.8,2.4l2.5,2.4L65.6,302.9z"/>
	<path class="st0" d="M73,323.5l-3.3-2.5l7.5-9.8l-2.7-2.1l2.1-2.8l8.7,6.6l-2.1,2.8l-2.7-2.1L73,323.5z"/>
	<path class="st0" d="M101.1,322.6l-4.5,7.7c-1,1.8-2.1,3.5-4.2,4c-1.8,0.5-3.8-0.2-5.4-1.1c-1.6-0.9-3.2-2.4-3.7-4.2
		c-0.6-2.1,0.3-3.9,1.4-5.7l4.5-7.7l3.6,2.1l-4.2,7.2c-1,1.8-2,3.8,0.3,5.1c2.3,1.3,3.5-0.5,4.6-2.3l4.2-7.2L101.1,322.6z"/>
	<path class="st0" d="M112.7,344.7l-4.8-1.9l-1.3-7.1l0,0l-2.3,5.6l-3.8-1.5l5.9-14.7l5.7,2.3c2.9,1.2,4.5,3.4,3.3,6.6
		c-0.8,2-2.7,3.3-4.9,2.8L112.7,344.7z M107.5,333.2l0.4,0.1c1.2,0.5,2.7,0.8,3.4-0.8s-0.7-2.4-1.9-2.9l-0.4-0.1L107.5,333.2z"/>
	<path class="st0" d="M125.9,335.7l-0.7,2.6l4.5,1.2l-0.9,3.4l-4.5-1.2l-0.7,2.6l4.7,1.3l-0.9,3.4l-8.7-2.3l4.1-15.3l8.7,2.3
		l-0.9,3.4L125.9,335.7z"/>
	<path class="st0" d="M142,343.1l-0.5,3.1l-5.9-1l0.5-3.1L142,343.1z"/>
	<path class="st0" d="M148.2,352.2l0.8-15.8l5.9,0.3c2.8,0.1,4.6,1.3,4.5,4.3c-0.1,1.4-0.6,2.6-1.9,3.1l0,0c2.3,0.4,3.1,2,3,4.2
		c-0.2,3.3-3.1,4.3-5.9,4.1L148.2,352.2z M152.4,349.3l0.5,0c1.2,0.1,3.3,0.2,3.4-1.5c0.1-1.9-1.9-1.8-3.3-1.9l-0.4,0L152.4,349.3z
		 M152.8,342.8l0.5,0c1.1,0.1,2.2-0.1,2.3-1.4c0.1-1.4-1.2-1.6-2.3-1.7l-0.3,0L152.8,342.8z"/>
	<path class="st0" d="M171.5,349.6l-0.8,2.8l-4.4,0.4l4.7-16.3l4.5-0.4l7.3,15.3l-4.4,0.4l-1.3-2.7L171.5,349.6z M173.7,341.2
		L173.7,341.2l-1.3,5.2l3.4-0.3L173.7,341.2z"/>
	<path class="st0" d="M195.2,336.8c-0.9-0.4-1.9-0.6-2.9-0.4c-0.7,0.2-1.6,0.8-1.4,1.7c0.2,0.9,1.4,1,2.1,1.1l1.1,0.1
		c2.3,0.1,4.2,0.9,4.8,3.4c0.3,1.5,0.3,3.2-0.7,4.5c-1,1.3-2.5,2.1-4.1,2.4c-1.9,0.4-4,0.2-5.8-0.5l1-3.6c1.2,0.7,2.6,1.1,3.9,0.8
		c0.9-0.2,1.8-0.9,1.6-2c-0.3-1.1-1.9-1.2-2.8-1.2c-2.7-0.1-4.5-0.4-5.2-3.4c-0.7-3.1,1.1-5.7,4.2-6.4c1.6-0.4,3.6-0.3,5.1,0.2
		L195.2,336.8z"/>
	<path class="st0" d="M206.7,332.7l0.9,2.5l4.4-1.6l1.2,3.3l-4.4,1.6l0.9,2.6l4.6-1.6l1.2,3.3l-8.5,3l-5.3-14.9l8.5-3l1.2,3.3
		L206.7,332.7z"/>
	<path class="st0" d="M215.5,325.6l5.2-2.6c3.9-2,8.7-0.5,10.8,3.4c2,4,0.3,8.7-3.6,10.7l-5.2,2.6L215.5,325.6z M224.8,334.7
		l0.8-0.4c2.2-1.1,3.5-3.3,2.1-6c-1.3-2.5-3.7-3.1-6-1.9l-0.9,0.4L224.8,334.7z"/>
	<path class="st0" d="M241.2,310.4l4.9-4c2.6-2.2,5.5-2.4,7.8,0.4c2.4,2.9,1.8,5.4-0.9,7.7l-1.8,1.5l3.3,4.1l-3.2,2.6L241.2,310.4z
		 M249,313.4l0.5-0.4c1.2-0.9,2.3-1.9,1.1-3.4c-1.3-1.5-2.3-0.7-3.6,0.3l-0.5,0.4L249,313.4z"/>
	<path class="st0" d="M274.8,300.5l-3.5,3.7l-7.1-1.3l0,0l4.4,4.2l-2.8,3l-11.5-10.8l4.2-4.5c2.1-2.3,4.9-3,7.3-0.7
		c1.6,1.5,2.1,3.7,0.9,5.6L274.8,300.5z M262.2,301.1l0.3-0.3c0.9-1,1.8-2.3,0.5-3.4c-1.3-1.2-2.5-0.3-3.4,0.7l-0.3,0.3L262.2,301.1
		z"/>
	<path class="st0" d="M281.8,277c4.2,2.9,5.1,8,2.2,12.2c-2.9,4.2-8,5.1-12.2,2.2c-3.9-2.7-4.3-8.1-1.7-11.8
		C272.7,275.8,277.8,274.3,281.8,277z M274.2,287.9c2.2,1.6,5,1,6.4-1s0.9-4.8-1.3-6.4c-1.8-1.2-4.6-0.7-6,1.3
		C271.9,283.8,272.4,286.6,274.2,287.9z"/>
	<path class="st0" d="M277.9,268.2l2.6-5.2c1.9-4,6.6-5.7,10.6-3.8c4,2,5.5,6.8,3.6,10.7l-2.6,5.2L277.9,268.2z M290.8,269.9
		l0.4-0.8c1.1-2.2,0.8-4.7-2-6c-2.5-1.2-4.8-0.3-6,2.1l-0.4,0.9L290.8,269.9z"/>
	<path class="st0" d="M290,238l8.5,2.7c1.9,0.6,3.8,1.3,4.8,3.3c0.8,1.7,0.6,3.8,0.1,5.5c-0.6,1.8-1.6,3.6-3.3,4.5
		c-1.9,1-3.9,0.5-5.8-0.1l-8.5-2.7l1.3-3.9l7.9,2.5c2,0.6,4.1,1.2,4.9-1.4s-1.3-3.3-3.3-4l-7.9-2.5L290,238z"/>
	<path class="st0" d="M298.5,222c-1.3,0.6-2.1,1.9-2.3,3.3c-0.4,2.5,1.2,4.5,3.6,4.9c2.5,0.4,4.5-1,5-3.5c0.2-1.3-0.2-2.8-1.1-3.8
		l4.9,0.8c0.2,1.4,0.3,2.4,0.1,3.7c-0.4,2.2-1.6,4.1-3.3,5.5c-1.8,1.5-4,1.9-6.3,1.5c-2.1-0.4-4-1.5-5.3-3.3
		c-1.3-1.8-1.9-4.2-1.5-6.4c0.2-1.3,0.7-2.5,1.4-3.6L298.5,222z"/>
	<path class="st0" d="M309.9,209.8l-0.2,4.1l-12.3-0.6l-0.2,3.4l-3.5-0.2l0.6-10.9l3.5,0.2l-0.2,3.4L309.9,209.8z"/>
	<path class="st0" d="M297.7,191.8c-0.6,0.8-0.9,1.8-0.9,2.8c0,0.8,0.6,1.7,1.4,1.7c0.9-0.1,1.2-1.2,1.4-1.9l0.2-1.1
		c0.5-2.2,1.5-4,4.1-4.2c1.6-0.1,3.2,0.2,4.4,1.4c1.1,1.2,1.7,2.8,1.8,4.4c0.1,2-0.4,4-1.4,5.7l-3.4-1.5c0.8-1.1,1.5-2.3,1.4-3.7
		c-0.1-1-0.6-2-1.7-1.9c-1.2,0.1-1.4,1.7-1.6,2.6c-0.6,2.6-1.1,4.4-4.2,4.6c-3.2,0.2-5.4-1.9-5.6-5.1c-0.1-1.6,0.3-3.6,1-5
		L297.7,191.8z"/>
</g>
<g>
	<path class="st0" d="M57.6,97.7l4.7-4.2c2.5-2.3,5.3-2.7,7.8,0c2.5,2.8,2.1,5.3-0.5,7.7l-1.7,1.6l3.5,3.9l-3.1,2.8L57.6,97.7z
		 M65.5,100.3l0.5-0.5c1.1-1,2.2-2,0.9-3.4c-1.3-1.5-2.4-0.6-3.5,0.5l-0.5,0.5L65.5,100.3z"/>
	<path class="st0" d="M90.8,81.8c2.8,4.3,1.8,9.3-2.5,12.1s-9.3,1.8-12.1-2.4c-2.6-4-1-9.1,2.8-11.6S88.2,77.8,90.8,81.8z
		 M79.8,89.1c1.5,2.3,4.3,2.8,6.3,1.5c2-1.4,2.6-4.1,1.1-6.4c-1.2-1.8-4-2.4-6-1C79.2,84.5,78.6,87.3,79.8,89.1z"/>
	<path class="st0" d="M102.9,78.6L102.9,78.6L102,67.9l3-1.3l6.9,8.2l0,0l-1.2-10.6l3.9-1.7l1.5,16.6l-3.9,1.6l-6.1-7.4l0,0l0.7,9.7
		l-3.8,1.6L92.5,71.9l3.9-1.7L102.9,78.6z"/>
	<path class="st0" d="M126.5,63.2l0.6,2.6l4.5-1.1l0.8,3.4l-4.5,1.1l0.6,2.7l4.8-1.2l0.8,3.4l-8.8,2.1l-3.8-15.4l8.8-2.1l0.8,3.4
		L126.5,63.2z"/>
	<path class="st0" d="M153.5,71.4l-5.1,0.6l-4.5-5.6l0,0l0.7,6l-4.1,0.5l-1.8-15.7l6.1-0.7c3.1-0.4,5.6,0.9,6,4.2
		c0.2,2.2-0.7,4.2-2.9,4.8L153.5,71.4z M143.5,63.8l0.4,0c1.3-0.2,2.8-0.6,2.6-2.3s-1.7-1.8-3.1-1.6l-0.4,0L143.5,63.8z"/>
	<path class="st0" d="M162.7,59l0,2.6l4.6,0.1l-0.1,3.5l-4.6-0.1l0,2.7l4.9,0.1l-0.1,3.5l-9-0.1l0.3-15.8l9,0.1l-0.1,3.5L162.7,59z"
		/>
	<path class="st0" d="M176,56.1l5.8,0.8c4.4,0.6,7.5,4.6,6.9,9c-0.6,4.4-4.7,7.3-9.1,6.7l-5.8-0.8L176,56.1z M178.3,68.9l0.9,0.1
		c2.4,0.3,4.7-0.7,5.1-3.7c0.4-2.8-1.2-4.7-3.9-5l-1-0.1L178.3,68.9z"/>
	<path class="st0" d="M203.7,78.1l5.7-14.8l5.5,2.1c2.6,1,4,2.7,2.9,5.5c-0.5,1.3-1.4,2.2-2.8,2.4l0,0c2,1.1,2.4,2.9,1.6,4.9
		c-1.2,3.1-4.2,3.1-6.9,2.1L203.7,78.1z M208.6,76.6l0.5,0.2c1.1,0.4,3,1.2,3.7-0.4c0.7-1.8-1.3-2.3-2.5-2.8l-0.4-0.2L208.6,76.6z
		 M211,70.6l0.4,0.2c1,0.4,2.1,0.6,2.6-0.6c0.5-1.4-0.6-1.9-1.7-2.3l-0.3-0.1L211,70.6z"/>
	<path class="st0" d="M226.4,70.2l4.3,2.4l0.5,5.2l4.7-2.3l4.3,2.4l-9.1,4.4l-3.7,6.7l-3.6-2l3.7-6.7L226.4,70.2z"/>
</g>
<g>
	<path class="st1" d="M28.5,138.6c1-1.7,8.6-3,15.1-4.2c0,0,10.3-1.6,11.2-1.6c0.9-0.1,4.4-0.8,4.7,1.8c0.4,3.1-2.5,3-4.4,4.6
		c-1.6,1.3-2.6,7.9-3.3,53.9c-0.7,48.6-0.8,51.5,1.5,53.9c3.6,3.4,9.2,1,10.1,1.7c0.9,0.8,1.2,3.1,0.5,3.9c-0.6,0.8-3.4-0.1-16.2,2
		c-7.4,1.2-13.5,5.2-14.7,4.4c-0.5-0.3-1-1.3-0.9-3c0.1-1.1,4-2.5,5.9-6.6c0.9-2,2-15.9,1.7-56.2c-0.3-40.2,0.5-52.4-0.3-52.7
		c-0.8-0.2-9.4,2.8-10.5,1.9C27.9,141.9,28.5,138.7,28.5,138.6"/>
	<path class="st1" d="M59.3,192.2c0,0,8.3-8.2,24.9-29.3c16.6-21.1,19.7-26.1,23.6-29.7c0.7-0.6,3.1-0.2,4.7-0.2
		c1.6,0,3.8-0.1,4.2,0.7c0.8,1.8-5,10.6-21.4,30.2c-14.1,17-15.1,16.9-22.1,24.8c2.5,3.9,5.2,10.1,20.8,32.2
		c15.6,22.1,23.4,27,27,29.6c3.5,2.6,7.5,3.5,7.3,5.5c-0.2,1.7-4.4,1.1-5.9,1.1c-1.4,0-10.6-0.7-15.9-4.2
		c-5.3-3.5-12.1-9.3-24.7-27.2C69.3,207.9,59.3,192.2,59.3,192.2"/>
	<path class="st1" d="M120,188.2c4.4,11.2,8.9,22.5,8.9,22.5s19.4-37.7,22.5-44.7c0.4-1,1.1-1.3,1.5-1.3c1.1,0.1,1.2,0.4,1.4,5.5
		c0.2,5.5-0.3,8.1-1,9.3c-4,7.4-33.2,58.8-34,60c-0.8,1.2-1.2,1.5-1.6,1.8c-0.4,0.3-3.5,1.1-4.2,0.1c-0.7-1,0.9-2.8,1.4-3.9
		c0.5-1.1,7.5-13.3,7.5-15.9c0-4.2-5.9-15.4-16.2-40.2c-1-2.4-2.3-4.9-4.4-5.5c-2.7-0.8-5.1,1.6-6.2,1.4c-1.2-0.2-1.8-2.2-1.6-2.9
		c0.1-0.7,3.9-2,8.2-4.1c4.3-2.1,7.7-4.2,8.8-4.2C111.7,166.4,115.8,177.3,120,188.2 M165.4,219.4c-6.1,0-7.3-4.8-7.3-7
		c0-13.4,22.5-17.2,22.5-17.2S182.2,219.4,165.4,219.4 M200.9,221.5c-0.3-0.6-0.8-1-1.3-1c-8.9,0-10.4-9.4-10.4-14.6
		c0-5.3,0.7-18.2,0.4-22.2c-0.3-3.9-0.7-10.5-3.8-13.3c-3.1-2.8-6.7-3.2-12.3-3.2c-5.7,0-9.8,0.9-12.1,3.2c-2.3,2.3-2.3,7.1-1.7,7.6
		c1,1,11.8-5.5,17-0.1c5.3,5.5,3.7,13.6,3.7,13.6s-32.9,4.8-32.9,25c0,2.2,0.9,10.3,10.6,10.3c12.9,0,21.5-11.5,21.5-11.5
		s0.4,11.4,10.2,11.4c7.8,0,10.9-3.6,11.1-3.9C201.2,222.4,201.2,222.2,200.9,221.5 M166.1,150.1c0,2.2-1.5,4-3.3,4
		c-1.9,0-3.4-1.8-3.4-4c0-2.2,1.5-4,3.4-4C164.5,146.2,166.1,148,166.1,150.1 M184.6,149.4c0,2.2-1.6,4-3.5,4c-2,0-3.5-1.8-3.5-4
		c0-2.2,1.5-4,3.5-4C183,145.4,184.6,147.2,184.6,149.4 M212,176.8c1.2-1.1,12.6-8.8,21.5-8.8c8.9,0,12.4,7.4,12.4,27.8
		c0,12.9-0.6,15.7-0.6,19.7c0,2.4,1.3,2.4,2.3,2.4c1,0,3.3-1.3,4.1-1.3c0.7,0,1.2,1.3,1.2,2.2c0,2-4,2.5-8.4,4.3
		c-4.1,1.8-7.9,4.6-9,4.6c-0.8,0-1.3-1.2-1.3-1.6c0-0.6,2.7-7.9,2.7-24.7c0-16.8-3.3-26.1-12.6-26.1c-6.6,0-11.5,6.1-11.5,6.1
		s0.1,7.3,0.1,15.1c0,7.7,0.1,26-0.6,27.3c-0.5,0.9-1.4,0.7-3.4,1.5c-2,0.7-4.9,2.4-4.9,0.3c-1-24.7,3.2-49.7-7.3-49.7
		c-1.1,0-1.4,0.5-2.4,0.5c-0.9,0-1.4-1.1-1.4-2c0-1.2,2.6-1.7,6.3-3.7c3.7-2,5.5-4,6.3-4C208.5,167.1,211.8,175.5,212,176.8
		 M268.2,223.8c1-2.1,0.4-15,0.4-41.5c0-4.6,0.7-11,0.7-13.1c0-0.9-1.5-2.1-2.1-2.1s-4.8,2.1-6.9,3.1c-3.1,1.5-9.9,2.5-9.9,4.5
		c0,2,1.1,2.6,1.4,2.5c0.9-0.1,1.9-1.2,3.5-0.9c4.9,0.7,3.8,3.3,3.8,45.3c0,4.4,0.2,5.7,0.8,6c0.5,0.3,3.3-1,4.6-1.6
		C265.7,225.4,267.5,225.2,268.2,223.8"/>
	<g transform="translate(63.885 .033)">
		<defs>
			<filter id="Adobe_OpacityMaskFilter" filterUnits="userSpaceOnUse" x="170.9" y="104.5" width="50.7" height="52.2">
				<feColorMatrix  type="matrix" values="1 0 0 0 0  0 1 0 0 0  0 0 1 0 0  0 0 0 1 0"/>
			</filter>
		</defs>
		
			<mask maskUnits="userSpaceOnUse" x="170.9" y="104.5" width="50.7" height="52.2" id="b_00000063632391302954646320000015865185088412574633_">
			<g class="st2">
				<path id="a_00000063615569772664230660000004722877139707112335_" class="st3" d="M170.9,104.5h50.7v52.2h-50.7V104.5z"/>
			</g>
		</mask>
		<path class="st4" d="M192,126c-6.4,9.2-13.7,12-18.2,11.2c-0.6-2-0.8-4.1-0.8-6.2c0-13,10.6-23.5,23.8-23.5
			c8.8,0,16.2,4.8,20.3,11.9C215.9,117.7,205.5,106.4,192,126 M208.6,107.9c-3.8-2.2-8-3.4-12.4-3.4c-8.9,0-17.4,4.8-22.1,13.3
			c-6.7,12.3-2.7,27.8,8.8,35.1c1.6-0.3,3.3-1.5,4.7-4.4c4.7-10.1,14.7-13.9,24.9-7.1c0.4,0.3,0.8,0.7,1.3,1.1
			c-4.9,0.3-7.5,6.2-7.5,6.2c0,0-0.4,0.7-0.6,1c-1.8,3-4.2,5.5-7.1,7c7.9-0.8,15.4-5.5,19.6-13.2
			C225.1,130.9,220.8,114.9,208.6,107.9"/>
	</g>
	<path class="st1" d="M258.5,147.8c-4.7,8.2-10.8,11.1-18.2,6.6c0.1,0.1,12.6,9.6,20.5-3.6c6-10.3,12.4-8.7,12.4-8.7
		s-1.4-0.4-3.3-0.4C266.5,141.7,261.5,142.7,258.5,147.8 M280.2,171.5h0.8c0.6,0,1.3,0,1.3-0.8c0-0.7-0.6-0.7-1.1-0.7h-1
		C280.2,169.9,280.2,171.5,280.2,171.5z M279.5,169.3h1.7c1.1,0,1.6,0.4,1.6,1.4c0,0.9-0.6,1.2-1.3,1.3l1.4,2.1h-0.7l-1.3-2.1h-0.8
		v2.1h-0.7V169.3z M281,175.3c1.9,0,3.5-1.6,3.5-3.7c0-2-1.5-3.6-3.5-3.6c-1.9,0-3.5,1.6-3.5,3.6S279.1,175.3,281,175.3z M281,167.5
		c2.2,0,4.1,1.8,4.1,4.2c0,2.4-1.8,4.3-4.1,4.3c-2.3,0-4.1-1.8-4.1-4.2C276.9,169.3,278.8,167.5,281,167.5z"/>
</g>
</svg>
